<svg id="Layer_1" data-name="Layer 1" xmlns="http://www.w3.org/2000/svg" viewBox="0 0 176.58 36.92"><defs><style>.cls-1{fill:#010101;}.cls-2{fill:none;}.cls-3{fill:#fff;}</style></defs><title>REConnect-Logo</title><path class="cls-1" d="M8.25,18.79h4.84v3H0V17.57a9,9,0,0,1,.29-2.42,4.84,4.84,0,0,1,.81-1.64,3.17,3.17,0,0,1,1.24-.92,4.06,4.06,0,0,1,1.54-.28,3.87,3.87,0,0,1,1.2.17,3.63,3.63,0,0,1,1,.5,4,4,0,0,1,.86.83,4.38,4.38,0,0,1,.62,1.13A2.46,2.46,0,0,1,8,14.37a2.07,2.07,0,0,1,.55-.46l4.55-2.79v2.75a1.18,1.18,0,0,1-.57,1.1L8.71,17.14a1,1,0,0,0-.35.34,1,1,0,0,0-.11.54Zm-2.1,0V17.57A3.24,3.24,0,0,0,6,16.52a1.91,1.91,0,0,0-.44-.72,1.62,1.62,0,0,0-.65-.4,2.36,2.36,0,0,0-.8-.13,1.69,1.69,0,0,0-1.35.56,2.6,2.6,0,0,0-.49,1.74v1.22Z"/><path class="cls-1" d="M0,1.45H2.34V6.83H5.39V2.71H7.64V6.83h3.11V1.45h2.34V9.88H0Z"/><path class="cls-1" d="M36.86,20.1a.13.13,0,0,1,.11,0l.15.13a11.84,11.84,0,0,1-1.55,1.28,9,9,0,0,1-1.81,1,10.94,10.94,0,0,1-2.16.66,13.07,13.07,0,0,1-2.6.24,11,11,0,0,1-4.26-.81,9.73,9.73,0,0,1-3.38-2.34,10.73,10.73,0,0,1-2.22-3.69,14.17,14.17,0,0,1-.79-4.89,13.83,13.83,0,0,1,.79-4.79,10.86,10.86,0,0,1,2.25-3.71A10,10,0,0,1,24.86.84,11.54,11.54,0,0,1,29.32,0a14,14,0,0,1,2.25.16,9.56,9.56,0,0,1,1.86.5,9.19,9.19,0,0,1,1.65.85,15.78,15.78,0,0,1,1.58,1.18l0,.08a.19.19,0,0,1-.15.08.64.64,0,0,1-.35-.19l-.59-.47c-.24-.18-.55-.38-.91-.6A7.79,7.79,0,0,0,33.32,1,10.9,10.9,0,0,0,31.58.52,11.92,11.92,0,0,0,29.32.33a11.1,11.1,0,0,0-4.26.79A9.5,9.5,0,0,0,21.71,3.4,10.54,10.54,0,0,0,19.53,7a13.39,13.39,0,0,0-.79,4.74,13.73,13.73,0,0,0,.78,4.78,10.6,10.6,0,0,0,2.15,3.59,9.31,9.31,0,0,0,3.25,2.25,10.52,10.52,0,0,0,4.08.78,14.23,14.23,0,0,0,2.48-.2,9.49,9.49,0,0,0,2-.57,8.38,8.38,0,0,0,1.69-.93,15.44,15.44,0,0,0,1.55-1.25C36.78,20.13,36.82,20.1,36.86,20.1Z"/><path class="cls-1" d="M63,11.73a14.32,14.32,0,0,1-.78,4.88,10.59,10.59,0,0,1-2.17,3.68,9.47,9.47,0,0,1-3.35,2.32,11.82,11.82,0,0,1-8.6,0,9.52,9.52,0,0,1-3.34-2.32,10.76,10.76,0,0,1-2.18-3.68,14.57,14.57,0,0,1-.77-4.88,14.65,14.65,0,0,1,.77-4.88,10.9,10.9,0,0,1,2.18-3.69A9.57,9.57,0,0,1,48.13.82,10.9,10.9,0,0,1,52.42,0a11.14,11.14,0,0,1,4.31.81,9.5,9.5,0,0,1,3.35,2.33,10.68,10.68,0,0,1,2.17,3.7A14.42,14.42,0,0,1,63,11.73Zm-.42,0a14.29,14.29,0,0,0-.75-4.79,10.38,10.38,0,0,0-2.09-3.58,8.81,8.81,0,0,0-3.22-2.25,11.24,11.24,0,0,0-8.23,0A9.06,9.06,0,0,0,45.1,3.36,10.57,10.57,0,0,0,43,6.94a14,14,0,0,0-.76,4.79A13.88,13.88,0,0,0,43,16.5a10.34,10.34,0,0,0,2.11,3.57,9.19,9.19,0,0,0,3.22,2.25,11.24,11.24,0,0,0,8.23,0,8.93,8.93,0,0,0,3.22-2.25,10.15,10.15,0,0,0,2.09-3.57A14.13,14.13,0,0,0,62.61,11.73Z"/><path class="cls-1" d="M69.78.39,86,22.49a.91.91,0,0,1,0-.17V.26h.33V23.19h-.1a.2.2,0,0,1-.18-.11L69.73.88a1.49,1.49,0,0,1,0,.21v22.1h-.33V.26h.13A.26.26,0,0,1,69.78.39Z"/><path class="cls-1" d="M94.55.39l16.23,22.1a.88.88,0,0,1,0-.17V.26h.33V23.19H111a.23.23,0,0,1-.18-.11L94.5.88a1.48,1.48,0,0,1,0,.21v22.1h-.32V.26h.13A.28.28,0,0,1,94.55.39Z"/><path class="cls-1" d="M132.35.26V.62h-13V11.37h11v.36h-11v11.1h13l0,.36H119V.26Z"/><path class="cls-1" d="M155.71,20.1a.13.13,0,0,1,.11,0l.15.13a11.22,11.22,0,0,1-1.55,1.28,9,9,0,0,1-1.81,1,10.94,10.94,0,0,1-2.16.66,13,13,0,0,1-2.6.24,11,11,0,0,1-4.26-.81,9.73,9.73,0,0,1-3.38-2.34A10.71,10.71,0,0,1,138,16.62a14.17,14.17,0,0,1-.8-4.89,13.83,13.83,0,0,1,.8-4.79,10.68,10.68,0,0,1,2.24-3.71A10.07,10.07,0,0,1,143.71.84,11.56,11.56,0,0,1,148.18,0a13.87,13.87,0,0,1,2.24.16,9.66,9.66,0,0,1,1.87.5,9.45,9.45,0,0,1,1.64.85,15.78,15.78,0,0,1,1.58,1.18l0,.08a.19.19,0,0,1-.14.08.62.62,0,0,1-.36-.19l-.59-.47q-.36-.27-.9-.6a7.92,7.92,0,0,0-1.3-.61,10.9,10.9,0,0,0-1.74-.46,11.74,11.74,0,0,0-2.25-.19,11.12,11.12,0,0,0-4.27.79,9.37,9.37,0,0,0-3.34,2.28A10.41,10.41,0,0,0,138.38,7a13.62,13.62,0,0,0-.79,4.74,13.73,13.73,0,0,0,.78,4.78,10.46,10.46,0,0,0,2.16,3.59,9.22,9.22,0,0,0,3.25,2.25,10.47,10.47,0,0,0,4.07.78,14.27,14.27,0,0,0,2.49-.2,9.56,9.56,0,0,0,2-.57,8.38,8.38,0,0,0,1.69-.93,14.39,14.39,0,0,0,1.55-1.25A.24.24,0,0,1,155.71,20.1Z"/><path class="cls-1" d="M176.58.26V.62H168V23.19h-.39V.62h-8.68V.26Z"/><line class="cls-2" x1="1.23" y1="27.81" x2="176.23" y2="27.81"/><line class="cls-3" x1="0.23" y1="27.81" x2="175.23" y2="27.81"/><rect class="cls-1" x="0.23" y="27.56" width="175" height="0.5"/><path class="cls-1" d="M4.05,36.86H3.71V34.63H.78v2.23H.44V32.19H.78v2.18H3.71V32.19h.34Z"/><path class="cls-1" d="M9.81,32.19v.28H7.35v1.89H9.4v.27H7.35v1.95H9.81v.28H7V32.19Z"/><path class="cls-1" d="M12.83,36.58H15v.28H12.49V32.19h.34Z"/><path class="cls-1" d="M17.88,35v1.88h-.34V32.19h1.21a1.87,1.87,0,0,1,1.24.36,1.3,1.3,0,0,1,.41,1,1.47,1.47,0,0,1-.11.56,1.45,1.45,0,0,1-.33.45,1.63,1.63,0,0,1-.52.29,2.17,2.17,0,0,1-.69.1Zm0-.27h.87a1.87,1.87,0,0,0,.55-.08,1.27,1.27,0,0,0,.41-.24A1,1,0,0,0,20,34a1.13,1.13,0,0,0,.09-.45,1,1,0,0,0-.34-.83,1.47,1.47,0,0,0-1-.29h-.87Z"/><path class="cls-1" d="M23.4,36.86h-.34V32.19h.34Z"/><path class="cls-1" d="M26.73,32.2l.05,0,3,4a1.21,1.21,0,0,1,0-.19V32.19h.29v4.67h-.16a.14.14,0,0,1-.12-.06l-3-4.06a1.28,1.28,0,0,1,0,.19v3.93h-.29V32.19h.24Z"/><path class="cls-1" d="M35.06,36.64l.44,0a2,2,0,0,0,.37-.08,1.75,1.75,0,0,0,.32-.12l.31-.16V35h-.9a.07.07,0,0,1-.06,0,.08.08,0,0,1,0,0v-.19h1.29V36.4a3.48,3.48,0,0,1-.36.22,2.5,2.5,0,0,1-.41.16,2.85,2.85,0,0,1-.46.1,4.41,4.41,0,0,1-.54,0,2.47,2.47,0,0,1-.92-.17,2.14,2.14,0,0,1-.72-.49,2.2,2.2,0,0,1-.46-.75,2.8,2.8,0,0,1-.17-1,2.86,2.86,0,0,1,.17-1,2.08,2.08,0,0,1,.47-.75,1.94,1.94,0,0,1,.73-.48,2.76,2.76,0,0,1,1-.17,3,3,0,0,1,.91.14,2,2,0,0,1,.36.18,3.43,3.43,0,0,1,.33.24l-.09.14a.09.09,0,0,1-.09,0h0l-.15-.09a1.57,1.57,0,0,0-.25-.16,2.3,2.3,0,0,0-.4-.14,2.46,2.46,0,0,0-.58-.06,2.19,2.19,0,0,0-.83.15,1.64,1.64,0,0,0-.62.41,1.83,1.83,0,0,0-.4.66,2.84,2.84,0,0,0,0,1.76,1.87,1.87,0,0,0,.4.67,1.75,1.75,0,0,0,.61.42A2.22,2.22,0,0,0,35.06,36.64Z"/><path class="cls-1" d="M45.22,32.19v.28H42.77v2h2.12v.28H42.77v2.14h-.35V32.19Z"/><path class="cls-1" d="M48.24,36.86H47.9V32.19h.34Z"/><path class="cls-1" d="M51.57,32.2l0,0,3,4a1.21,1.21,0,0,1,0-.19V32.19h.29v4.67h-.16a.14.14,0,0,1-.12-.06l-3-4.06a1.28,1.28,0,0,1,0,.19v3.93h-.29V32.19h.24Z"/><path class="cls-1" d="M61.83,34.53a2.94,2.94,0,0,1-.16,1,2.15,2.15,0,0,1-.46.74,2.08,2.08,0,0,1-.7.46,2.45,2.45,0,0,1-.91.16H57.9V32.19h1.7a2.67,2.67,0,0,1,.91.16,2.1,2.1,0,0,1,.7.47,2.06,2.06,0,0,1,.46.74A2.9,2.9,0,0,1,61.83,34.53Zm-.35,0a2.66,2.66,0,0,0-.14-.88A1.84,1.84,0,0,0,61,33a1.65,1.65,0,0,0-.59-.41,2.11,2.11,0,0,0-.77-.13H58.24v4.12H59.6a2.11,2.11,0,0,0,.77-.14,1.62,1.62,0,0,0,.59-.4,1.89,1.89,0,0,0,.38-.65A2.65,2.65,0,0,0,61.48,34.53Z"/><path class="cls-1" d="M67.68,36.58h2.21v.28H67.34V32.19h.34Z"/><path class="cls-1" d="M76.2,34.53a2.8,2.8,0,0,1-.17,1,2.18,2.18,0,0,1-.45.75,2,2,0,0,1-.7.48,2.46,2.46,0,0,1-.91.17,2.37,2.37,0,0,1-.9-.17,1.94,1.94,0,0,1-.71-.48,2.34,2.34,0,0,1-.45-.75,2.8,2.8,0,0,1-.17-1,2.76,2.76,0,0,1,.17-1,2.29,2.29,0,0,1,.45-.76,2.22,2.22,0,0,1,.71-.48,2.37,2.37,0,0,1,.9-.17,2.46,2.46,0,0,1,.91.17,2,2,0,0,1,.7.48,2.13,2.13,0,0,1,.45.76A2.76,2.76,0,0,1,76.2,34.53Zm-.35,0a2.66,2.66,0,0,0-.14-.88,1.94,1.94,0,0,0-.38-.66,1.67,1.67,0,0,0-.59-.42,2.11,2.11,0,0,0-.77-.14,2.06,2.06,0,0,0-.76.14,1.81,1.81,0,0,0-.6.42,1.94,1.94,0,0,0-.38.66,2.66,2.66,0,0,0-.14.88,2.71,2.71,0,0,0,.14.88,2,2,0,0,0,.38.65,1.81,1.81,0,0,0,.6.42,2.06,2.06,0,0,0,.76.14,2.11,2.11,0,0,0,.77-.14,1.67,1.67,0,0,0,.59-.42,2,2,0,0,0,.38-.65A2.71,2.71,0,0,0,75.85,34.53Z"/><path class="cls-1" d="M78.08,32.19h.27a.09.09,0,0,1,.07,0,.1.1,0,0,1,0,.06l1.59,3.88a1.7,1.7,0,0,1,.1.32,2,2,0,0,1,.1-.32l1.59-3.88,0-.06a.11.11,0,0,1,.08,0h.26l-1.92,4.67H80Z"/><path class="cls-1" d="M87.35,32.19v.28H84.9v1.89h2v.27h-2v1.95h2.45v.28h-2.8V32.19Z"/><path class="cls-1" d="M94,34.53a2.7,2.7,0,0,1-.16,1,2.29,2.29,0,0,1-.45.74,2,2,0,0,1-.71.46,2.36,2.36,0,0,1-.9.16H90V32.19h1.71a2.57,2.57,0,0,1,.9.16,2,2,0,0,1,.71.47,2.19,2.19,0,0,1,.45.74A2.67,2.67,0,0,1,94,34.53Zm-.35,0a2.67,2.67,0,0,0-.13-.88A1.84,1.84,0,0,0,93.1,33a1.69,1.69,0,0,0-.6-.41,2.06,2.06,0,0,0-.76-.13H90.37v4.12h1.37a2.06,2.06,0,0,0,.76-.14,1.66,1.66,0,0,0,.6-.4,1.89,1.89,0,0,0,.38-.65A2.65,2.65,0,0,0,93.61,34.53Z"/><path class="cls-1" d="M103.64,34.53a2.8,2.8,0,0,1-.16,1,2.34,2.34,0,0,1-.45.75,1.94,1.94,0,0,1-.71.48,2.47,2.47,0,0,1-1.8,0,1.94,1.94,0,0,1-.71-.48,2.36,2.36,0,0,1-.46-.75,3.05,3.05,0,0,1-.16-1,3,3,0,0,1,.16-1,2.31,2.31,0,0,1,.46-.76,2.22,2.22,0,0,1,.71-.48,2.47,2.47,0,0,1,1.8,0,1.94,1.94,0,0,1,.71.48,2.29,2.29,0,0,1,.45.76A2.76,2.76,0,0,1,103.64,34.53Zm-.35,0a2.67,2.67,0,0,0-.13-.88,1.94,1.94,0,0,0-.38-.66,1.77,1.77,0,0,0-.59-.42,2.15,2.15,0,0,0-.77-.14,2.11,2.11,0,0,0-.77.14,1.87,1.87,0,0,0-.59.42,2,2,0,0,0-.39.66,2.67,2.67,0,0,0-.13.88,2.71,2.71,0,0,0,.13.88,2,2,0,0,0,.39.65,1.87,1.87,0,0,0,.59.42,2.11,2.11,0,0,0,.77.14,2.15,2.15,0,0,0,.77-.14,1.77,1.77,0,0,0,.59-.42,2,2,0,0,0,.38-.65A2.71,2.71,0,0,0,103.29,34.53Z"/><path class="cls-1" d="M106.56,32.2l0,0,3,4a1.21,1.21,0,0,1,0-.19V32.19h.29v4.67h-.16a.14.14,0,0,1-.12-.06l-3-4.06a1.28,1.28,0,0,1,0,.19v3.93h-.29V32.19h.24Z"/><path class="cls-1" d="M115.69,32.19v.28h-2.46v1.89h2v.27h-2v1.95h2.46v.28h-2.8V32.19Z"/><path class="cls-1" d="M120.63,32.76a.1.1,0,0,1-.09.06.16.16,0,0,1-.11-.07l-.18-.13a1.57,1.57,0,0,0-.29-.14,1.35,1.35,0,0,0-.43-.06,1.25,1.25,0,0,0-.45.07,1.08,1.08,0,0,0-.33.2,1,1,0,0,0-.2.29,1,1,0,0,0-.06.35.67.67,0,0,0,.1.39.81.81,0,0,0,.26.26,1.5,1.5,0,0,0,.38.19l.43.14.43.16a2,2,0,0,1,.38.22.93.93,0,0,1,.26.33,1,1,0,0,1,.1.48,1.42,1.42,0,0,1-.1.55,1.13,1.13,0,0,1-.29.45,1.27,1.27,0,0,1-.47.3,1.54,1.54,0,0,1-.63.12,1.81,1.81,0,0,1-.8-.17,1.93,1.93,0,0,1-.58-.45l.09-.14a.14.14,0,0,1,.09,0,.12.12,0,0,1,.08,0l.11.1.16.12a.91.91,0,0,0,.22.13,1,1,0,0,0,.28.09,1.28,1.28,0,0,0,.36,0,1.26,1.26,0,0,0,.49-.08,1.06,1.06,0,0,0,.37-.23,1,1,0,0,0,.23-.34,1.26,1.26,0,0,0,.08-.43.73.73,0,0,0-.1-.41,1,1,0,0,0-.27-.27,1.82,1.82,0,0,0-.37-.18l-.43-.14c-.15,0-.29-.1-.43-.15a1.4,1.4,0,0,1-.38-.22,1,1,0,0,1-.27-.34,1.24,1.24,0,0,1,0-1,1.22,1.22,0,0,1,.26-.38,1.43,1.43,0,0,1,.43-.27,1.48,1.48,0,0,1,.57-.1,1.94,1.94,0,0,1,.66.11,1.52,1.52,0,0,1,.52.36Z"/><path class="cls-1" d="M128.5,32.76a.09.09,0,0,1-.08.06.16.16,0,0,1-.11-.07l-.19-.13a1.12,1.12,0,0,0-.29-.14,1.31,1.31,0,0,0-.43-.06,1.16,1.16,0,0,0-.44.07,1.08,1.08,0,0,0-.33.2.84.84,0,0,0-.2.29,1,1,0,0,0-.07.35.67.67,0,0,0,.11.39.81.81,0,0,0,.26.26,1.5,1.5,0,0,0,.38.19l.43.14.43.16a1.9,1.9,0,0,1,.37.22,1.09,1.09,0,0,1,.27.33,1,1,0,0,1,.1.48,1.42,1.42,0,0,1-.1.55,1.25,1.25,0,0,1-.29.45,1.35,1.35,0,0,1-.47.3,1.61,1.61,0,0,1-.63.12,1.78,1.78,0,0,1-.8-.17,1.82,1.82,0,0,1-.58-.45l.09-.14a.1.1,0,0,1,.17,0l.11.1.16.12a1.07,1.07,0,0,0,.21.13,1.15,1.15,0,0,0,.28.09,1.37,1.37,0,0,0,.36,0,1.31,1.31,0,0,0,.5-.08,1.16,1.16,0,0,0,.37-.23,1,1,0,0,0,.23-.34,1.26,1.26,0,0,0,.08-.43.83.83,0,0,0-.1-.41,1,1,0,0,0-.27-.27,1.82,1.82,0,0,0-.37-.18l-.44-.14-.43-.15a1.51,1.51,0,0,1-.37-.22,1,1,0,0,1-.27-.34,1.06,1.06,0,0,1-.1-.5,1.2,1.2,0,0,1,.09-.45,1.22,1.22,0,0,1,.26-.38,1.43,1.43,0,0,1,.43-.27,1.45,1.45,0,0,1,.57-.1,1.94,1.94,0,0,1,.66.11,1.62,1.62,0,0,1,.52.36Z"/><path class="cls-1" d="M131.73,36.86h-.34V32.19h.34Z"/><path class="cls-1" d="M135.06,32.2l.05,0,3,4a1.21,1.21,0,0,1,0-.19V32.19h.29v4.67h-.16a.14.14,0,0,1-.12-.06l-3-4.06a1.28,1.28,0,0,1,0,.19v3.93h-.29V32.19h.24Z"/><path class="cls-1" d="M144.78,36.08a.07.07,0,0,1,.06,0l.13.14a2.14,2.14,0,0,1-.32.28,2.22,2.22,0,0,1-.37.21,3,3,0,0,1-.45.14,2.89,2.89,0,0,1-.53.05,2.31,2.31,0,0,1-.89-.17,2.1,2.1,0,0,1-1.14-1.24,2.8,2.8,0,0,1-.17-1,2.7,2.7,0,0,1,.17-1,2.17,2.17,0,0,1,.47-.76,2.14,2.14,0,0,1,.72-.49,2.52,2.52,0,0,1,.93-.17,2.19,2.19,0,0,1,.46,0,1.56,1.56,0,0,1,.4.11,1.62,1.62,0,0,1,.35.17,2.27,2.27,0,0,1,.31.25l-.1.15a.12.12,0,0,1-.08,0l-.08,0-.12-.09-.17-.11a1.08,1.08,0,0,0-.24-.11l-.32-.09a2.54,2.54,0,0,0-.41,0,2,2,0,0,0-.78.15A1.63,1.63,0,0,0,142,33a2,2,0,0,0-.4.66,2.56,2.56,0,0,0-.14.87,2.66,2.66,0,0,0,.14.88,2.14,2.14,0,0,0,.39.66,1.81,1.81,0,0,0,1.34.55,3.19,3.19,0,0,0,.45,0,1.36,1.36,0,0,0,.36-.1,1.43,1.43,0,0,0,.3-.16,1.93,1.93,0,0,0,.28-.22l0,0Z"/><path class="cls-1" d="M150.41,32.19v.28H148v1.89h2v.27h-2v1.95h2.46v.28h-2.8V32.19Z"/><path class="cls-1" d="M157.23,32.14a1.7,1.7,0,0,1,.51.08,1.37,1.37,0,0,1,.43.23,1.24,1.24,0,0,1,.29.39,1.4,1.4,0,0,1,.11.56,1.57,1.57,0,0,1-.08.49,1.94,1.94,0,0,1-.22.43,3.81,3.81,0,0,1-.32.41l-.39.4-1.46,1.49.22,0h2.25a.11.11,0,0,1,.08,0,.1.1,0,0,1,0,.08v.18h-3v-.11a.19.19,0,0,1,0-.07.16.16,0,0,1,0-.07l1.6-1.61.36-.39a2.4,2.4,0,0,0,.29-.38,1.8,1.8,0,0,0,.2-.39,1.33,1.33,0,0,0,0-.88.93.93,0,0,0-.23-.31,1,1,0,0,0-.34-.18,1.23,1.23,0,0,0-.39-.06,1.29,1.29,0,0,0-.4.06,1.06,1.06,0,0,0-.33.19,1,1,0,0,0-.24.29,1.11,1.11,0,0,0-.13.36.14.14,0,0,1-.13.12h0l-.16,0a1.65,1.65,0,0,1,.17-.53,1.38,1.38,0,0,1,.31-.4,1.36,1.36,0,0,1,.44-.25A1.78,1.78,0,0,1,157.23,32.14Z"/><path class="cls-1" d="M164.24,34.53a3.73,3.73,0,0,1-.14,1.06,2.12,2.12,0,0,1-.35.74,1.5,1.5,0,0,1-.54.44,1.58,1.58,0,0,1-1.3,0,1.47,1.47,0,0,1-.53-.44,2.32,2.32,0,0,1-.36-.74,4.43,4.43,0,0,1,0-2.13,2.32,2.32,0,0,1,.36-.74,1.47,1.47,0,0,1,.53-.44,1.58,1.58,0,0,1,1.3,0,1.5,1.5,0,0,1,.54.44,2.12,2.12,0,0,1,.35.74A3.75,3.75,0,0,1,164.24,34.53Zm-.33,0a3.81,3.81,0,0,0-.11-1,2,2,0,0,0-.29-.66,1.27,1.27,0,0,0-.43-.38,1.2,1.2,0,0,0-.52-.12,1.13,1.13,0,0,0-.51.12,1.11,1.11,0,0,0-.43.38,2,2,0,0,0-.3.66,3.81,3.81,0,0,0-.11,1,3.87,3.87,0,0,0,.11,1,2.06,2.06,0,0,0,.3.65,1.08,1.08,0,0,0,.94.49,1.19,1.19,0,0,0,.52-.11,1.27,1.27,0,0,0,.43-.38,2.06,2.06,0,0,0,.29-.65A3.87,3.87,0,0,0,163.91,34.53Z"/><path class="cls-1" d="M168,32.14a1.7,1.7,0,0,1,.51.08,1.27,1.27,0,0,1,.43.23,1.2,1.2,0,0,1,.4.95,1.57,1.57,0,0,1-.08.49,1.94,1.94,0,0,1-.22.43,3.81,3.81,0,0,1-.32.41l-.39.4-1.46,1.49.22,0h2.25a.11.11,0,0,1,.08,0,.1.1,0,0,1,0,.08v.18h-3v-.11a.19.19,0,0,1,0-.07.43.43,0,0,1,0-.07l1.6-1.61.36-.39a3.32,3.32,0,0,0,.3-.38,2.33,2.33,0,0,0,.19-.39,1.33,1.33,0,0,0,0-.88.93.93,0,0,0-.23-.31,1.06,1.06,0,0,0-.33-.18,1.34,1.34,0,0,0-.4-.06,1.29,1.29,0,0,0-.4.06,1.06,1.06,0,0,0-.33.19,1,1,0,0,0-.24.29,1.11,1.11,0,0,0-.13.36.14.14,0,0,1-.13.12h0l-.16,0a1.43,1.43,0,0,1,.16-.53,1.38,1.38,0,0,1,.31-.4,1.36,1.36,0,0,1,.44-.25A1.78,1.78,0,0,1,168,32.14Z"/><path class="cls-1" d="M173.45,32.14a1.7,1.7,0,0,1,.51.08,1.22,1.22,0,0,1,.42.23,1.14,1.14,0,0,1,.3.39,1.4,1.4,0,0,1,.11.56,1.57,1.57,0,0,1-.08.49,2.49,2.49,0,0,1-.22.43,3.81,3.81,0,0,1-.32.41l-.39.4-1.46,1.49.22,0h2.24a.12.12,0,0,1,.09,0,.1.1,0,0,1,0,.08v.18h-3v-.11a.17.17,0,0,1,0-.07l0-.07L173.54,35l.37-.39a3.2,3.2,0,0,0,.29-.38,2.4,2.4,0,0,0,.2-.39,1.55,1.55,0,0,0,.07-.43,1.06,1.06,0,0,0-.09-.45.81.81,0,0,0-.23-.31.88.88,0,0,0-.33-.18,1.23,1.23,0,0,0-.39-.06,1.06,1.06,0,0,0-.74.25,1.09,1.09,0,0,0-.23.29.92.92,0,0,0-.13.36c0,.08-.07.12-.14.12h0l-.16,0a1.44,1.44,0,0,1,.17-.53,1.23,1.23,0,0,1,.31-.4,1.31,1.31,0,0,1,.43-.25A1.91,1.91,0,0,1,173.45,32.14Z"/></svg>